<?xml version="1.0" encoding="UTF-8" standalone="no"?>
<svg
   width="316.57101"
   height="77.574997"
   viewBox="0 0 316.57103 77.575"
   version="1.1"
   id="svg48"
   sodipodi:docname="default-logo.svg"
   inkscape:version="1.2.2 (b0a8486541, 2022-12-01)"
   xmlns:inkscape="http://www.inkscape.org/namespaces/inkscape"
   xmlns:sodipodi="http://sodipodi.sourceforge.net/DTD/sodipodi-0.dtd"
   xmlns="http://www.w3.org/2000/svg"
   xmlns:svg="http://www.w3.org/2000/svg">
  <defs
     id="defs52" />
  <sodipodi:namedview
     id="namedview50"
     pagecolor="#ffffff"
     bordercolor="#000000"
     borderopacity="0.25"
     inkscape:showpageshadow="2"
     inkscape:pageopacity="0.0"
     inkscape:pagecheckerboard="0"
     inkscape:deskcolor="#d1d1d1"
     showgrid="false"
     inkscape:zoom="1.2438096"
     inkscape:cx="133.86294"
     inkscape:cy="-56.680703"
     inkscape:window-width="841"
     inkscape:window-height="1008"
     inkscape:window-x="858"
     inkscape:window-y="37"
     inkscape:window-maximized="1"
     inkscape:current-layer="Logo_jubileum" />
  <g
     id="Logo_jubileum"
     data-name="Logo jubileum"
     transform="translate(-363,-175)">
    <g
       id="Group_7047"
       data-name="Group 7047"
       transform="matrix(1.335576,0,0,1.335576,-156.10557,-71.735802)"
       style="fill:#cccccc">
      <path
         id="Path_5911"
         data-name="Path 5911"
         d="m 139.374,47.087 v 6.179 h -6.753 V 30.28 h 11.628 c 5.738,0 8.954,3.639 8.954,8.277 0,4.688 -3.216,8.53 -8.954,8.53 z m 0,-11.239 v 5.687 h 3.726 c 1.98,0 3.25,-0.982 3.25,-2.843 0,-1.963 -1.2,-2.843 -3.25,-2.843 z"
         transform="translate(351.359,172.342)"
         fill="#373736"
         style="fill:#cccccc" />
      <path
         id="Path_5912"
         data-name="Path 5912"
         d="m 164.362,53.265 h -6.567 V 30.279 h 5.5 L 173.772,42.55 V 30.279 h 6.568 v 22.986 h -5.264 L 164.362,41.129 Z"
         transform="translate(349.149,172.342)"
         fill="#373736"
         style="fill:#cccccc" />
      <path
         id="Path_5913"
         data-name="Path 5913"
         d="m 194.683,43.928 c 3.4,0.592 4.79,2.082 4.79,4.925 0,3.352 -2.742,5.366 -7.329,5.366 a 21.919,21.919 0 0 1 -6.771,-0.982 l 0.592,-4.875 a 18.335,18.335 0 0 0 5.433,0.965 c 1.355,0 2.15,-0.152 2.15,-0.558 0,-0.373 -0.576,-0.491 -2.032,-0.694 l -1.066,-0.152 c -3.673,-0.525 -5.331,-1.963 -5.331,-5.061 0,-3.487 2.928,-5.568 7.8,-5.568 a 19.626,19.626 0 0 1 5.7,0.846 L 198,43.081 a 15.227,15.227 0 0 0 -4.553,-0.762 c -1.744,0 -2.522,0.2 -2.522,0.66 0,0.372 0.711,0.423 2.691,0.762 z"
         transform="translate(346.751,171.727)"
         fill="#373736"
         style="fill:#cccccc" />
      <path
         id="Path_5914"
         data-name="Path 5914"
         d="m 218.757,52.8 a 13.872,13.872 0 0 1 -6.28,1.422 c -6.144,0 -9.7,-3.385 -9.7,-8.5 0,-5.095 3.419,-8.429 8.581,-8.429 5.145,0 8.835,3.114 7.8,9.885 h -10.303 c 0.119,1.252 1.929,2 3.926,2 a 13.408,13.408 0 0 0 5.247,-0.982 z m -5.315,-8.7 a 2.14,2.14 0 0 0 -2.167,-2.082 2.26,2.26 0 0 0 -2.42,2.082 z"
         transform="translate(345.201,171.727)"
         fill="#373736"
         style="fill:#cccccc" />
      <path
         id="Path_5915"
         data-name="Path 5915"
         d="m 240.424,42.98 v 10.9 h -6.5 v -8.971 a 1.972,1.972 0 0 0 -3.944,0 v 8.971 h -6.5 V 37.631 h 5.92 l 0.152,1.557 a 6.478,6.478 0 0 1 5.044,-1.9 5.474,5.474 0 0 1 5.823,5.687"
         transform="translate(343.385,171.727)"
         fill="#373736"
         style="fill:#cccccc" />
      <path
         id="Path_5916"
         data-name="Path 5916"
         d="m 254.079,43.928 c 3.4,0.592 4.79,2.082 4.79,4.925 0,3.352 -2.742,5.366 -7.329,5.366 a 21.919,21.919 0 0 1 -6.771,-0.982 l 0.592,-4.875 a 18.336,18.336 0 0 0 5.433,0.965 c 1.355,0 2.15,-0.152 2.15,-0.558 0,-0.373 -0.576,-0.491 -2.032,-0.694 l -1.066,-0.152 c -3.673,-0.525 -5.331,-1.963 -5.331,-5.061 0,-3.487 2.928,-5.568 7.8,-5.568 a 19.626,19.626 0 0 1 5.7,0.846 l -0.626,4.942 a 15.227,15.227 0 0 0 -4.553,-0.762 c -1.744,0 -2.522,0.2 -2.522,0.66 0,0.372 0.711,0.423 2.691,0.762 z"
         transform="translate(341.538,171.727)"
         fill="#373736"
         style="fill:#cccccc" />
      <path
         id="Path_5917"
         data-name="Path 5917"
         d="m 278.154,52.8 a 13.872,13.872 0 0 1 -6.28,1.422 c -6.144,0 -9.7,-3.385 -9.7,-8.5 0,-5.095 3.419,-8.429 8.581,-8.429 5.145,0 8.835,3.114 7.8,9.885 h -10.303 c 0.119,1.252 1.929,2 3.926,2 a 13.408,13.408 0 0 0 5.247,-0.982 z m -5.315,-8.7 a 2.14,2.14 0 0 0 -2.167,-2.082 2.26,2.26 0 0 0 -2.42,2.082 z"
         transform="translate(339.988,171.727)"
         fill="#373736"
         style="fill:#cccccc" />
      <path
         id="Path_5918"
         data-name="Path 5918"
         d="m 283.813,28.347 a 3.483,3.483 0 0 1 3.5,3.466 3.474,3.474 0 1 1 -3.5,-3.466 m 0,6.058 a 2.542,2.542 0 0 0 2.646,-2.593 2.589,2.589 0 0 0 -2.646,-2.606 2.537,2.537 0 0 0 -2.588,2.606 2.5,2.5 0 0 0 2.588,2.593 m -0.579,-0.839 h -0.882 v -3.547 h 1.61 a 1.245,1.245 0 0 1 1.3,1.27 1.3,1.3 0 0 1 -0.611,1.095 l 0.868,1.182 h -1.049 l -0.727,-1.008 h -0.509 z m 0,-2.754 v 0.961 h 0.6 a 0.476,0.476 0 0 0 0.509,-0.483 0.466,0.466 0 0 0 -0.509,-0.477 z"
         transform="translate(338.392,172.512)"
         fill="#373736"
         style="fill:#cccccc" />
      <path
         id="Path_5919"
         data-name="Path 5919"
         d="m 115.149,29.907 a 15.184,15.184 0 0 0 -2.765,0.254 v 6.483 h -8.524 a 12.457,12.457 0 0 0 -1.033,5.061 c 0,6.99 5.027,11.865 12.322,11.865 7.261,0 12.254,-4.858 12.254,-11.847 0,-6.958 -4.993,-11.816 -12.254,-11.816 m 0.034,17.654 c -3.3,0 -5.518,-2.37 -5.518,-5.838 0,-3.42 2.218,-5.756 5.518,-5.756 3.233,0 5.382,2.336 5.382,5.756 0,3.468 -2.149,5.838 -5.382,5.838"
         transform="translate(353.975,172.375)"
         fill="#373736"
         style="fill:#cccccc" />
    </g>
    <g
       id="Group_7049"
       data-name="Group 7049">
      <path
         id="Path_5885"
         data-name="Path 5885"
         d="m 18.6,0 v 16.969 h 43.638 v 43.637 h 16.97 V 24.242 L 54.966,0 Z"
         transform="translate(361.367,175)"
         fill="#c03e14" />
      <path
         id="Path_5886"
         data-name="Path 5886"
         d="M 0,18.6 V 54.965 L 24.242,79.208 H 60.606 V 62.239 H 16.969 V 18.6 Z"
         transform="translate(363,173.367)"
         fill="#c03e14" />
    </g>
  </g>
</svg>
